<svg width="32" height="32" viewBox="0 0 32 32" fill="none" xmlns="http://www.w3.org/2000/svg">
<path d="M26.8313 4.24994C26.4845 4.26524 26.1615 4.36623 25.8771 4.48119C25.6107 4.58835 24.5928 5.02491 22.9896 5.71244C21.385 6.40057 19.2603 7.31277 16.9938 8.28744C12.4608 10.2368 7.3645 12.4311 4.75418 13.5541C4.65602 13.5963 4.31353 13.7057 3.95001 13.9895C3.5865 14.2733 3.20001 14.8614 3.20001 15.5166C3.20001 16.045 3.45182 16.5699 3.76876 16.8833C4.08571 17.1967 4.42108 17.3515 4.70835 17.4687C5.75066 17.894 8.98332 19.2169 9.59376 19.4666C9.80859 20.1247 10.9787 23.704 11.25 24.5812C11.4289 25.1601 11.5992 25.5226 11.8208 25.8104C11.9317 25.9542 12.0605 26.0803 12.2167 26.1791C12.2791 26.2186 12.3475 26.249 12.4167 26.277L12.4208 26.2791C12.4368 26.2855 12.4505 26.2964 12.4667 26.302C12.4972 26.3127 12.5176 26.314 12.5583 26.3229C12.7208 26.3753 12.8849 26.4083 13.0313 26.4083C13.6554 26.4083 14.0375 26.0645 14.0375 26.0645L14.0604 26.0479L17.2708 23.2708L21.1646 26.9541C21.2194 27.0316 21.7307 27.7333 22.8583 27.7333C23.5279 27.7333 24.059 27.3973 24.4 27.0395C24.741 26.6817 24.9534 26.3059 25.0438 25.8333V25.8312C25.1282 25.3846 28.7167 6.96244 28.7167 6.96244L28.7104 6.98744C28.8155 6.50796 28.843 6.06143 28.7271 5.62078C28.6112 5.18013 28.3058 4.75823 27.9271 4.53119C27.5485 4.30421 27.178 4.23465 26.8313 4.24994ZM26.6313 6.47911C26.6261 6.51024 26.6351 6.49459 26.6271 6.53119L26.625 6.54369L26.6229 6.55619C26.6229 6.55619 23.0789 24.7427 22.9479 25.4354C22.9575 25.3831 22.9137 25.4871 22.8688 25.5499C22.8052 25.5062 22.675 25.4499 22.675 25.4499L22.6542 25.427L17.3354 20.3958L13.575 23.6458L14.6938 19.1666C14.6938 19.1666 21.687 11.9275 22.1083 11.5062C22.4475 11.1691 22.5188 11.0516 22.5188 10.9354C22.5188 10.7796 22.4376 10.6666 22.2563 10.6666C22.0931 10.6666 21.8736 10.8253 21.7563 10.8999C20.2276 11.8744 13.5166 15.7857 10.5083 17.5354C10.0303 17.3397 6.70899 15.9802 5.58335 15.5208C5.59187 15.517 5.58906 15.5184 5.59793 15.5145C8.20894 14.3912 13.3031 12.1969 17.8354 10.2479C20.1016 9.27333 22.2279 8.36043 23.8313 7.67286C25.4099 6.99587 26.5068 6.52996 26.6313 6.47911Z" fill="#A3FF12"/>
</svg>
